<?xml version="1.0" standalone="no"?>
<!DOCTYPE svg PUBLIC "-//W3C//DTD SVG 20010904//EN"
 "http://www.w3.org/TR/2001/REC-SVG-20010904/DTD/svg10.dtd">
<svg version="1.0" xmlns="http://www.w3.org/2000/svg"
 width="225.000000pt" height="225.000000pt" viewBox="0 0 225.000000 225.000000"
 preserveAspectRatio="xMidYMid meet">

<g transform="translate(0.000000,225.000000) scale(0.100000,-0.100000)"
fill="#000000" stroke="none">
<path d="M850 2220 c-220 -47 -392 -140 -551 -299 -132 -132 -219 -276 -274
-452 -26 -85 -26 -87 -23 -340 4 -220 7 -261 24 -309 l19 -55 1026 -3 1027 -2
10 27 c40 101 56 200 56 353 0 158 -8 222 -46 340 -123 385 -452 675 -848 746
-109 19 -316 17 -420 -6z m490 -617 c128 -230 267 -476 307 -548 42 -75 73
-141 73 -157 l0 -28 -332 2 -333 3 -3 573 -2 572 28 0 c26 0 41 -23 262 -417z
m-372 -305 l-3 -423 -237 0 c-131 0 -239 2 -240 5 -4 8 466 839 475 840 4 0 6
-190 5 -422z"/>
</g>
</svg>
